<svg width="24" height="24" viewBox="0 0 24 24" fill="none" xmlns="http://www.w3.org/2000/svg">
<path fill-rule="evenodd" clip-rule="evenodd" d="M7.5199 9.75999H7.6799C8.2959 9.75999 8.7999 10.264 8.7999 10.88V16.48C8.7999 17.096 8.2959 17.6 7.6799 17.6H7.5199C6.9039 17.6 6.3999 17.096 6.3999 16.48V10.88C6.3999 10.264 6.9039 9.75999 7.5199 9.75999ZM11.9999 6.39999C12.6159 6.39999 13.1199 6.90399 13.1199 7.51999V16.48C13.1199 17.096 12.6159 17.6 11.9999 17.6C11.3839 17.6 10.8799 17.096 10.8799 16.48V7.51999C10.8799 6.90399 11.3839 6.39999 11.9999 6.39999ZM16.4799 12.8C17.0959 12.8 17.5999 13.304 17.5999 13.92V16.48C17.5999 17.096 17.0959 17.6 16.4799 17.6C15.8639 17.6 15.3599 17.096 15.3599 16.48V13.92C15.3599 13.304 15.8639 12.8 16.4799 12.8Z" fill="#808080"/>
</svg>
