<svg width="24" height="24" viewBox="0 0 24 24" fill="none" xmlns="http://www.w3.org/2000/svg">
<path fill-rule="evenodd" clip-rule="evenodd" d="M10.8465 9.15355C11.0418 8.95829 11.0427 8.63967 10.8807 8.41601C10.6578 8.10822 10.4001 7.65411 10.4001 7.2C10.4001 5.97845 12.7316 5.22321 13.8346 4.93428C14.0188 4.88602 14.0436 4.63634 13.8673 4.56442C12.857 4.15233 10.6029 3.39907 8.80007 4C7.0616 4.57949 5.74289 5.99851 5.148 6.73675C4.92283 7.01617 4.89911 7.39809 5.0596 7.71906L5.4389 8.47767C5.53515 8.67016 5.49742 8.90265 5.34524 9.05483L4.80007 9.6L4.35362 9.15355C4.15836 8.95829 3.84178 8.95829 3.64652 9.15355L2.75362 10.0464C2.55836 10.2417 2.55836 10.5583 2.75362 10.7536L5.24652 13.2464C5.44178 13.4417 5.75836 13.4417 5.95362 13.2464L6.84652 12.3536C7.04178 12.1583 7.04178 11.8417 6.84652 11.6464L6.40007 11.2L6.94524 10.6548C7.09742 10.5026 7.32991 10.4649 7.5224 10.5612L8.47774 11.0388C8.67023 11.1351 8.90272 11.0974 9.0549 10.9452L10.8465 9.15355ZM21.2308 18.7693C21.4321 18.568 21.425 18.2395 21.2151 18.0471L12.353 9.92349C12.1556 9.7426 11.8508 9.74923 11.6616 9.93852L9.96933 11.6307C9.76804 11.832 9.77518 12.1605 9.98502 12.3529L18.8472 20.4765C19.0445 20.6574 19.3493 20.6508 19.5386 20.4615L21.2308 18.7693Z" fill="#808080"/>
</svg>
