<svg width="24" height="24" viewBox="0 0 24 24" fill="none" xmlns="http://www.w3.org/2000/svg">
<path fill-rule="evenodd" clip-rule="evenodd" d="M11.9999 4C8.9119 4 6.3999 6.512 6.3999 9.6C6.3999 12.936 9.9359 17.536 11.3839 19.288C11.7039 19.672 12.2879 19.672 12.6079 19.288C14.0639 17.536 17.5999 12.936 17.5999 9.6C17.5999 6.512 15.0879 4 11.9999 4ZM12.7039 15H11.3039V13.6H12.7039V15ZM13.0079 11.768C12.9839 11.8 12.9599 11.84 12.9359 11.88C12.9199 11.912 12.8959 11.944 12.8799 11.976C12.8559 12.016 12.8399 12.056 12.8239 12.096C12.8079 12.128 12.7919 12.16 12.7839 12.2C12.7359 12.352 12.7039 12.52 12.7039 12.704H11.2959C11.2959 12.416 11.3279 12.176 11.3839 11.96H11.3999V11.912C11.8079 10.504 13.2879 10.424 13.3839 9.32C13.4399 8.64 12.9599 7.984 12.2959 7.84C11.5679 7.68 10.9039 8.104 10.6719 8.736C10.5839 9 10.3519 9.2 10.0639 9.2H9.9359C9.4959 9.2 9.1919 8.776 9.3279 8.36C9.7279 7.096 10.9999 6.216 12.4399 6.44C13.6559 6.624 14.6159 7.664 14.7759 8.88C14.9919 10.472 13.6399 10.888 13.0079 11.768Z" fill="#808080"/>
</svg>
