<svg width="24" height="24" viewBox="0 0 24 24" fill="none" xmlns="http://www.w3.org/2000/svg">
<path fill-rule="evenodd" clip-rule="evenodd" d="M17.2612 11.2672C17.5332 11.2672 17.8052 11.2912 18.0692 11.3232V4.00322C18.0692 3.29122 17.2052 2.93122 16.7012 3.43522L3.43719 16.6992C2.93319 17.2032 3.28519 18.0672 3.99719 18.0672H11.3172C11.2852 17.8032 11.2612 17.5392 11.2612 17.2672C11.2612 13.9552 13.9492 11.2672 17.2612 11.2672ZM20.2292 17.6592C20.2452 17.5312 20.2612 17.4032 20.2612 17.2672C20.2612 17.1312 20.2532 17.0032 20.2292 16.8752L21.0772 16.2112C21.1492 16.1472 21.1732 16.0432 21.1252 15.9552L20.3252 14.5712C20.2772 14.4832 20.1732 14.4512 20.0772 14.4832L19.0852 14.8832C18.8772 14.7232 18.6532 14.5872 18.4052 14.4912L18.2532 13.4352C18.2452 13.3392 18.1572 13.2672 18.0612 13.2672H16.4612C16.3652 13.2672 16.2772 13.3392 16.2612 13.4352L16.1092 14.4912C15.8692 14.5952 15.6372 14.7232 15.4292 14.8832L14.4372 14.4832C14.3492 14.4512 14.2452 14.4832 14.1892 14.5712L13.3892 15.9552C13.3412 16.0432 13.3572 16.1472 13.4372 16.2112L14.2852 16.8752C14.2692 17.0032 14.2612 17.1312 14.2612 17.2672C14.2612 17.4032 14.2692 17.5312 14.2852 17.6592L13.4372 18.3232C13.3652 18.3872 13.3412 18.4912 13.3892 18.5792L14.1892 19.9632C14.2372 20.0512 14.3412 20.0832 14.4372 20.0512L15.4292 19.6512C15.6372 19.8112 15.8612 19.9472 16.1092 20.0432L16.2612 21.0992C16.2772 21.1952 16.3572 21.2672 16.4612 21.2672H18.0612C18.1572 21.2672 18.2452 21.1952 18.2612 21.0992L18.4132 20.0432C18.6532 19.9392 18.8852 19.8112 19.0852 19.6512L20.0852 20.0512C20.1732 20.0832 20.2772 20.0512 20.3332 19.9632L21.1332 18.5792C21.1812 18.4912 21.1572 18.3872 21.0852 18.3232L20.2292 17.6592ZM17.2612 18.4672C16.5972 18.4672 16.0612 17.9312 16.0612 17.2672C16.0612 16.6032 16.5972 16.0672 17.2612 16.0672C17.9252 16.0672 18.4612 16.6032 18.4612 17.2672C18.4612 17.9312 17.9252 18.4672 17.2612 18.4672Z" fill="#808080"/>
</svg>
